<svg width="112" height="111" viewBox="0 0 112 111" fill="none" xmlns="http://www.w3.org/2000/svg">
<path d="M109.769 88.768C109.852 88.4961 109.932 88.2205 110.005 87.9467C110.351 86.6502 110.592 85.4001 110.745 84.2066C110.806 83.7677 110.848 83.3621 110.88 82.9825C110.885 82.9148 110.889 82.8489 110.894 82.7821C110.902 82.6763 110.914 82.5594 110.917 82.4601C110.947 82.1826 110.963 81.8689 110.975 81.5478C110.997 81.1274 111.005 80.7821 110.998 80.3654C110.998 80.2355 110.995 80.1046 110.992 79.9738C110.992 79.971 110.992 79.9682 110.992 79.9654C110.992 79.9515 110.992 79.9367 110.992 79.9228C110.992 79.9135 110.992 79.9033 110.993 79.8949L110.992 79.9172C110.992 79.9116 110.992 79.907 110.992 79.9005C110.992 79.8726 110.992 79.8411 110.992 79.8142C110.992 79.7835 110.989 79.7473 110.988 79.7167C110.969 78.6235 110.896 77.8458 110.859 77.456C110.853 77.3873 110.842 77.3094 110.834 77.237C110.824 77.1451 110.814 77.0532 110.802 76.9585C110.797 76.9177 110.793 76.8778 110.787 76.837C110.784 76.8082 110.78 76.7794 110.776 76.7507C110.771 76.7043 110.764 76.6541 110.759 76.6068C110.748 76.5224 110.737 76.4407 110.726 76.3562C110.701 76.1558 110.672 75.9498 110.64 75.7344L110.619 75.5767C110.587 75.3289 110.534 75.0523 110.477 74.7711C110.378 74.2588 110.237 73.6714 110.14 73.2055L109.812 71.8607C109.802 71.8199 109.791 71.7837 109.781 71.7447C109.78 71.7392 109.78 71.7336 109.779 71.729C109.772 71.7076 109.764 71.6798 109.758 71.6575C109.695 71.4199 109.631 71.1953 109.567 70.9847L109.537 70.8761L109.522 70.8343C109.51 70.7953 109.498 70.761 109.486 70.7239C109.482 70.7081 109.476 70.6877 109.472 70.6719C109.464 70.6515 109.456 70.6283 109.448 70.6069C109.441 70.5865 109.434 70.5605 109.427 70.5401L109.412 70.4984C109.408 70.4872 109.404 70.4752 109.4 70.464C109.279 70.0798 109.168 69.7828 109.025 69.4617C108.97 69.3309 108.936 69.2566 108.934 69.2538C108.912 69.2056 108.885 69.1499 108.861 69.0998C108.764 68.8854 108.667 68.6766 108.563 68.4594L108.452 68.22C108.443 68.2033 108.432 68.1819 108.422 68.1652C108.414 68.1485 108.404 68.1263 108.396 68.1096L108.263 67.8701C108.146 67.6539 108.031 67.4479 107.914 67.24C107.89 67.1954 107.863 67.1444 107.839 67.1008C107.826 67.0766 107.806 67.0479 107.792 67.0228C107.788 67.0145 107.781 67.0024 107.776 66.994C107.746 66.9402 107.703 66.8762 107.669 66.8186C107.595 66.6971 107.527 66.582 107.446 66.4576C107.347 66.3045 107.253 66.1671 107.155 66.0251C107.131 65.9899 107.102 65.9463 107.079 65.9129C107.073 65.9054 107.066 65.8952 107.06 65.8878C107.06 65.8869 107.06 65.8859 107.06 65.8859C107.012 65.8154 106.964 65.7467 106.916 65.6781C106.851 65.5862 106.786 65.4943 106.719 65.4015C105.577 63.8062 104.281 62.5143 102.961 61.4916C102.929 61.4656 102.904 61.4461 102.872 61.422C102.841 61.3979 102.81 61.3728 102.778 61.3487C102.524 61.1501 102.309 60.9905 102.176 60.8967C102.128 60.8624 102.059 60.8151 102.002 60.7751C101.946 60.7352 101.894 60.6963 101.836 60.6554C101.724 60.5784 101.614 60.5107 101.502 60.4364C101.425 60.3863 101.353 60.338 101.269 60.2833C101.258 60.2759 101.246 60.2684 101.235 60.2601L101.08 60.1552L101.09 60.1608L101.077 60.1524L101.072 60.1496C101.069 60.1478 101.066 60.1459 101.063 60.145L101.005 60.1088C100.919 60.055 100.833 60.003 100.747 59.951L100.718 59.9325L100.672 59.9065C100.309 59.6893 99.9481 59.4907 99.5873 59.3042C99.579 59.2995 99.5698 59.2949 99.5615 59.2903L99.5356 59.2782C96.9585 57.9585 94.4459 57.3878 92.2803 57.1307C92.224 57.1233 92.1668 57.1168 92.1105 57.1103C92.0201 57.1001 91.9306 57.0898 91.8411 57.0806C91.8171 57.0778 91.7913 57.075 91.7682 57.0722C91.7396 57.0694 91.711 57.0648 91.6824 57.062C91.1417 57.0035 90.6867 56.9711 90.1626 56.9479C90.1091 56.9451 90.0501 56.9414 89.9984 56.9386C90.0335 56.9395 90.0695 56.9414 90.1036 56.9423C89.8545 56.9311 89.5887 56.9209 89.3202 56.9135C89.2058 56.9098 89.0988 56.907 88.9936 56.9042C88.8302 56.9005 88.6725 56.8968 88.5285 56.895C88.5128 56.895 88.4934 56.895 88.4768 56.895H88.4778C88.4768 56.895 88.4759 56.895 88.475 56.895C88.1668 56.8912 87.8014 56.8996 87.4581 56.907C87.3797 56.9089 87.2994 56.9098 87.2219 56.9117C87.2044 56.9117 87.186 56.9126 87.1684 56.9126C87.137 56.9126 87.102 56.9135 87.0725 56.9135C87.0651 56.9135 87.0568 56.9144 87.0494 56.9144C87.0402 56.9144 87.03 56.9144 87.0208 56.9154L86.8325 56.9247C86.6415 56.9358 86.4432 56.9441 86.242 56.9543C86.1811 56.9571 86.1184 56.9599 86.0584 56.9636C85.8803 56.972 85.7059 56.9813 85.5509 56.9915C85.3387 57.0054 85.0914 57.0258 84.8441 57.0472C84.7463 57.0546 84.6494 57.0639 84.5516 57.0722C84.4178 57.0833 84.2905 57.0945 84.1696 57.1047L84.0902 57.1112C84.0875 57.1112 84.0838 57.1121 84.0801 57.1121C84.0773 57.1121 84.0736 57.1121 84.0708 57.113L83.9915 57.1223C83.8088 57.1427 83.6095 57.1641 83.4046 57.1864C83.1417 57.2151 82.8796 57.2439 82.6203 57.2773C82.6148 57.2782 82.6093 57.2782 82.6037 57.2792C82.4229 57.3024 82.2171 57.3311 82.0076 57.3618L82.314 57.3172L81.836 57.3859C81.6939 57.4063 81.5666 57.4239 81.4494 57.4416L81.3304 57.4583C81.3248 57.4592 81.3202 57.4601 81.3147 57.4611C81.2621 57.4694 81.1956 57.4787 81.1495 57.4852L81.143 57.4861C81.1421 57.4861 81.1412 57.4861 81.1403 57.4861C81.1394 57.4861 81.1375 57.4861 81.1366 57.4871C80.4307 57.5929 79.6519 57.7339 78.8529 57.8935C78.8316 57.8982 78.8104 57.9019 78.7883 57.9065C78.6508 57.9344 78.5161 57.9604 78.3777 57.9891C78.3454 57.9956 78.3131 58.0031 78.2817 58.0095C78.2605 58.0142 78.2356 58.0188 78.2153 58.0225L78.1977 58.0263C78.147 58.0374 78.0907 58.0504 78.0372 58.0615C77.92 58.0866 77.8074 58.1098 77.6856 58.1367C77.6367 58.1469 77.5878 58.158 77.5389 58.1692C77.4106 58.1979 77.2842 58.2267 77.1569 58.2564C74.1608 58.9255 71.2672 59.8211 68.5913 60.9153C68.2776 61.0406 67.9924 61.1668 67.7018 61.2921C67.6916 61.2967 67.6824 61.3004 67.6723 61.3051C67.5015 61.3775 67.341 61.4471 67.1906 61.5129C67.1537 61.5297 67.1159 61.5445 67.0789 61.5612L67.0439 61.5761C67.0402 61.5779 67.0347 61.5807 67.03 61.5826C67.0254 61.5844 67.0199 61.5872 67.0162 61.5881C66.9885 61.6011 66.9571 61.616 66.9285 61.629C66.1774 61.9631 65.7438 62.1802 65.7327 62.1858C65.5435 62.2777 65.3258 62.389 65.1071 62.5013C65.0536 62.5282 64.9991 62.557 64.9447 62.5849C64.8413 62.6377 64.7463 62.6869 64.6485 62.7371L64.4676 62.8289C64.4584 62.8345 64.4455 62.841 64.4354 62.8466C64.4252 62.8521 64.4114 62.8586 64.4012 62.8642L64.2711 62.9366C64.2388 62.9542 64.2047 62.9737 64.1733 62.9913C64.0838 63.0405 63.9998 63.0869 63.9066 63.138C63.7516 63.2234 63.5929 63.3124 63.4333 63.4034C63.4324 63.4043 63.4305 63.4043 63.4296 63.4053C63.4148 63.4136 63.3991 63.4229 63.3844 63.4312C63.3189 63.4684 63.2432 63.5101 63.1832 63.5445C63.1611 63.5575 63.1334 63.576 63.1103 63.589C62.7643 63.7922 62.4081 64.0103 62.039 64.2507L61.9781 64.2878C61.9542 64.3045 61.9255 64.3231 61.9006 64.3407C61.8748 64.3565 61.8434 64.3769 61.8185 64.3927L61.6386 64.518C61.6275 64.5254 61.6174 64.5328 61.6063 64.5403C61.467 64.6358 61.3267 64.7314 61.1837 64.8317C61.0047 64.9551 60.8294 65.0767 60.678 65.1871C60.6771 65.188 60.6753 65.189 60.6743 65.1899C60.2859 65.4702 59.9232 65.7569 59.5726 66.0456C59.568 66.0493 59.5634 66.0521 59.5588 66.0558C59.5578 66.0567 59.5569 66.0576 59.556 66.0586C59.4979 66.1068 59.4397 66.1551 59.3816 66.2033C59.2497 66.3147 59.1186 66.4261 58.9913 66.5384C58.9276 66.594 58.8621 66.6488 58.8003 66.7045C58.7034 66.7908 58.6084 66.8817 58.5133 66.9708C58.47 67.0107 58.4284 67.0516 58.386 67.0915C58.2688 67.2028 58.1544 67.3133 58.0437 67.4228C57.9385 67.5277 57.8342 67.6335 57.7299 67.7411C57.5722 67.9054 57.4254 68.0632 57.2833 68.22L57.1818 68.3267C57.168 68.3434 57.1514 68.3638 57.1376 68.3805C56.9438 68.5986 56.7666 68.8065 56.607 69.0005C56.595 69.0144 56.5812 69.0293 56.5692 69.0432L56.5092 69.1221C56.1705 69.5406 55.9094 69.8942 55.7498 70.1206C55.6723 70.2311 55.6049 70.3369 55.5311 70.4455C55.4499 70.5643 55.3696 70.6821 55.293 70.7991C55.2543 70.8584 55.2174 70.9178 55.1805 70.9763C55.0596 71.1666 54.9442 71.3531 54.8354 71.5369C54.8215 71.561 54.8068 71.5851 54.7929 71.6092C54.2319 72.5651 53.8379 73.4162 53.5731 74.0779C53.5657 74.0955 53.5592 74.1122 53.5519 74.1298C53.5491 74.1382 53.5445 74.1475 53.5417 74.1558C53.5316 74.1809 53.5242 74.2022 53.514 74.2273C53.3802 74.5623 53.2594 74.8834 53.1514 75.1878C53.1459 75.2027 53.1422 75.2194 53.1366 75.2342C53.1274 75.2602 53.1182 75.2871 53.1099 75.3131C53.1006 75.34 53.0887 75.3706 53.0794 75.3966C53.0739 75.4133 53.0674 75.4356 53.0619 75.4532C52.9032 75.9173 52.7989 76.2662 52.7325 76.5159C52.7306 76.5242 52.7279 76.5316 52.726 76.54C52.7002 76.6393 52.678 76.7275 52.6624 76.7943C52.6033 77.0514 52.5295 77.3539 52.4603 77.6518C52.4326 77.7789 52.404 77.9042 52.3791 78.0323C52.3763 78.0434 52.3726 78.0583 52.3708 78.0694C52.3671 78.0898 52.3625 78.114 52.3588 78.1353C52.356 78.153 52.3496 78.1752 52.3468 78.1929C52.3431 78.2133 52.3403 78.2374 52.3376 78.2578C52.3034 78.4536 52.2693 78.6625 52.237 78.8741C52.2324 78.9037 52.2278 78.9316 52.2222 78.9613C52.2231 78.9557 52.225 78.9502 52.2259 78.9446C52.2222 78.9706 52.2176 78.9975 52.2139 79.0235C52.1991 79.1274 52.177 79.2276 52.1641 79.3325L52.1613 79.3492C52.1595 79.3678 52.1567 79.3928 52.1549 79.4114C52.1521 79.4309 52.1484 79.4541 52.1456 79.4726L52.1207 79.7427C52.0838 80.087 52.046 80.4508 52.0257 80.7552C52.0257 80.7608 52.0081 81.0531 51.9989 81.4828C51.9989 81.4921 51.9971 81.5004 51.9962 81.5088L51.9934 81.8828L51.9888 82.0313V82.0554C51.9888 82.0842 51.9897 82.113 51.9897 82.1408V82.1445C51.9897 82.1473 51.9897 82.1501 51.9897 82.1519V82.1575L51.9906 82.2141V82.1761L51.9962 82.3051C52.0017 82.6587 52.0155 83.0373 52.0469 83.4141C52.0921 83.9598 52.1152 84.2057 52.189 84.6271L52.1927 84.6614L52.2111 84.77C52.2121 84.7783 52.2139 84.7895 52.2148 84.7969C52.2167 84.8052 52.2185 84.8154 52.2204 84.8238L52.2259 84.8581C52.2278 84.8693 52.2296 84.8823 52.2314 84.8934L52.2351 84.9157C52.2351 84.9138 52.2351 84.911 52.2342 84.9092C52.2803 85.1718 52.3302 85.414 52.3828 85.6544C52.3966 85.7194 52.4095 85.7788 52.4234 85.841C52.4261 85.8539 52.4271 85.866 52.4289 85.8781C52.4271 85.8706 52.428 85.8632 52.4261 85.8567C52.4372 85.9078 52.4483 85.9625 52.4603 86.0108L52.7888 87.3555C52.8109 87.4437 52.8312 87.5254 52.8515 87.6061C52.8515 87.6052 52.8515 87.6052 52.8506 87.6042C52.8506 87.6052 52.8515 87.607 52.8515 87.608C53.0047 88.2205 53.1126 88.6279 53.2538 89.0734C53.3193 89.2887 53.3858 89.4956 53.4559 89.6812L53.7429 90.4664C53.813 90.6603 53.8813 90.8561 53.9542 91.0455L54.0824 91.3963L53.98 91.1086C54.0538 91.2988 54.1322 91.4807 54.2079 91.6663C54.231 91.7248 54.2531 91.7814 54.2743 91.8362C54.3131 91.9373 54.3509 92.0338 54.3925 92.1424L54.4183 92.1963C54.6794 92.8385 54.8714 93.2292 55.2146 93.889C55.2248 93.9085 55.2349 93.928 55.2451 93.9475C55.2607 93.9781 55.2773 94.0106 55.294 94.0422C55.294 94.0431 55.2949 94.044 55.2949 94.044C55.5256 94.534 55.8624 95.1103 56.1844 95.6375C57.3046 97.5511 58.7735 99.5399 60.702 101.406C63.3493 104.069 66.4635 106.197 69.8185 107.578C70.2688 107.772 70.7108 107.946 71.126 108.097H71.1251H71.126C71.2146 108.129 71.3115 108.168 71.3964 108.197C71.412 108.202 71.4333 108.21 71.4499 108.215C71.4674 108.222 71.484 108.228 71.5025 108.235L71.5163 108.24C71.5182 108.24 71.52 108.241 71.5209 108.242C71.8817 108.372 72.2563 108.494 72.6393 108.614L72.8764 108.694C72.9271 108.708 72.9862 108.725 73.0397 108.74C73.0425 108.741 73.0443 108.741 73.0462 108.742C73.0785 108.753 73.1163 108.766 73.1486 108.776L73.1975 108.789C73.2215 108.796 73.2436 108.805 73.2686 108.811C73.3599 108.837 73.4485 108.859 73.5389 108.884C74.2134 109.078 74.9507 109.267 75.687 109.406C75.6842 109.406 75.6824 109.405 75.6805 109.405L75.6907 109.407C75.735 109.415 75.7793 109.426 75.8236 109.434C75.9278 109.452 76.0284 109.47 76.1299 109.488L76.3098 109.525C76.3624 109.533 76.4076 109.54 76.4584 109.547C76.5968 109.571 76.7361 109.594 76.8745 109.616C76.9151 109.622 76.9594 109.63 76.9991 109.636L77.0914 109.652C77.1301 109.657 77.1717 109.661 77.2104 109.667C77.3267 109.684 77.4457 109.702 77.5592 109.717C77.6884 109.735 77.8176 109.75 77.9467 109.766C78.1608 109.792 78.3832 109.817 78.612 109.839C78.6213 109.839 78.6305 109.84 78.6397 109.841C78.6951 109.847 78.7477 109.852 78.804 109.857C78.8252 109.859 78.8473 109.862 78.8685 109.864C78.9359 109.869 79.0088 109.874 79.078 109.879C79.1795 109.888 79.2865 109.895 79.3927 109.903C79.4942 109.909 79.5947 109.917 79.7008 109.923C79.8531 109.932 80.0053 109.942 80.1576 109.949C80.1779 109.949 80.2 109.95 80.2213 109.95L80.3191 109.953C80.6282 109.965 80.952 109.975 81.3018 109.981C84.8607 110.04 90.5788 109.422 96.4418 105.876C96.7758 105.679 97.1135 105.468 97.4567 105.244L97.4604 105.242C97.4641 105.239 97.4688 105.236 97.4724 105.234C97.5177 105.204 97.5638 105.172 97.609 105.143C97.6321 105.128 97.6616 105.109 97.6847 105.095L97.7677 105.038C97.9532 104.913 98.1423 104.783 98.3333 104.647C98.4016 104.6 98.469 104.553 98.5345 104.508C98.5585 104.491 98.5825 104.477 98.6065 104.46C98.6498 104.429 98.6886 104.398 98.731 104.368C98.7633 104.344 98.8002 104.319 98.8307 104.297C98.9322 104.222 99.0162 104.158 99.1038 104.093C99.2201 104.006 99.3354 103.919 99.4471 103.833C99.6335 103.69 99.8023 103.557 99.9647 103.425C99.9804 103.413 99.9942 103.4 100.01 103.388C100.062 103.345 100.113 103.303 100.166 103.26C100.194 103.236 100.224 103.209 100.252 103.185C100.324 103.125 100.397 103.065 100.467 103.005C100.486 102.989 100.505 102.976 100.524 102.959C100.539 102.947 100.556 102.931 100.571 102.918C100.584 102.907 100.597 102.896 100.61 102.885C100.926 102.618 101.265 102.309 101.607 101.985C101.67 101.928 101.732 101.87 101.791 101.816C101.801 101.807 101.808 101.801 101.819 101.79L101.825 101.785C102.113 101.515 102.359 101.267 102.686 100.925C102.7 100.911 102.716 100.894 102.73 100.88C102.773 100.836 102.809 100.794 102.85 100.751C102.919 100.678 102.984 100.61 103.061 100.527C103.085 100.502 103.111 100.471 103.135 100.446C103.536 100.015 103.909 99.5845 104.264 99.139C104.272 99.1288 104.282 99.1177 104.29 99.1075L104.373 99.011C104.398 98.9785 104.428 98.9386 104.453 98.9052C104.571 98.7567 104.688 98.6054 104.804 98.4513C104.812 98.4421 104.819 98.4328 104.827 98.4226C104.851 98.3919 104.875 98.3613 104.899 98.3298C104.953 98.2611 105.013 98.1868 105.064 98.1219C105.199 97.9493 105.343 97.7553 105.489 97.5539C105.606 97.3924 105.721 97.2282 105.834 97.063C105.849 97.0416 105.863 97.0212 105.877 97.0008C106.009 96.8068 106.139 96.6101 106.265 96.4115C106.6 95.8964 106.92 95.3591 107.187 94.8626C107.306 94.6491 107.421 94.4301 107.546 94.1832C107.58 94.1229 107.618 94.0561 107.65 93.9985L107.848 93.5791C107.852 93.5726 107.855 93.5661 107.858 93.5596C107.902 93.4723 107.943 93.3897 107.982 93.3108C108.09 93.09 108.205 92.8691 108.305 92.6501C108.491 92.2584 108.632 91.9308 108.791 91.5262C108.83 91.4334 108.866 91.3452 108.9 91.2608C108.953 91.1299 109.006 91 109.055 90.8691C109.171 90.5703 109.269 90.2938 109.373 89.9754C109.376 89.9661 109.379 89.9587 109.383 89.9485C109.385 89.942 109.388 89.9346 109.39 89.9281C109.486 89.6488 109.586 89.3685 109.673 89.0928C109.709 88.9852 109.738 88.8738 109.769 88.768Z" fill="#D21830" stroke="black" stroke-width="2" stroke-miterlimit="10" stroke-linecap="round"/>
<path d="M58.1738 98.4206C65.7707 83.4232 62.2154 70.9488 59.05 66.5786C58.6907 66.8237 55.0878 69.8716 55.0878 69.8716C45.2935 81.7586 53.7151 92.6529 58.0949 98.3186L58.1738 98.4206Z" fill="black" stroke="black" stroke-width="2"/>
<path d="M52.3434 85.0323L52.3252 84.9194C52.3261 84.9241 52.3261 84.9288 52.327 84.9334L52.3434 85.0323Z" fill="#E7899B" stroke="black" stroke-width="2" stroke-miterlimit="10" stroke-linecap="round"/>
<path d="M52.2627 79.2438C52.2763 79.1593 52.2935 79.0571 52.3089 78.9624C52.3044 78.9884 52.2962 79.0126 52.2917 79.0386C52.2817 79.0999 52.2718 79.1816 52.2627 79.2438Z" fill="#E7899B" stroke="black" stroke-width="2" stroke-miterlimit="10" stroke-linecap="round"/>
<path d="M90.3219 56.9503C90.2804 56.9494 90.2333 56.9476 90.1899 56.9458C90.2721 56.9494 90.357 56.953 90.4335 56.9567L90.3219 56.9503Z" fill="#E7899B" stroke="black" stroke-width="2" stroke-miterlimit="10" stroke-linecap="round"/>
<path d="M2.79205 91.5023C2.75422 91.4075 2.71085 91.2961 2.66748 91.1855L2.77267 91.453C2.77821 91.4679 2.78651 91.4874 2.79205 91.5023Z" fill="#6A0014"/>
<path d="M59.6666 79.4412C59.6509 78.6923 59.6343 78.2969 59.5522 77.5888L59.5485 77.5266L59.5429 77.4858C59.5411 77.4617 59.5402 77.4422 59.5383 77.418C59.5365 77.3939 59.5328 77.3726 59.5309 77.3484C59.53 77.3401 59.53 77.3336 59.5291 77.3252C59.506 77.0245 59.4682 76.6895 59.4239 76.3461C59.4138 76.27 59.4036 76.1921 59.3925 76.1169C59.3012 75.458 59.1831 74.7805 59.0502 74.2218C59.0391 74.1745 59.0225 74.1179 59.0115 74.0696C58.9699 73.8868 58.9266 73.703 58.8804 73.5174C58.8158 73.2381 58.7522 72.9625 58.6811 72.6655C58.4597 71.7309 58.0297 70.5263 57.6957 69.6205L57.6938 69.614C57.6947 69.6159 57.6947 69.6168 57.6957 69.6187C57.6947 69.6168 57.6947 69.615 57.6938 69.6131V69.6122C57.692 69.6066 57.6901 69.601 57.6874 69.5955C57.5333 69.1936 57.3266 68.6572 57.1725 68.2544V68.2535C57.1688 68.2442 57.1651 68.2349 57.1614 68.2257C57.1605 68.2238 57.1605 68.222 57.1605 68.2201C57.1586 68.2155 57.1559 68.2108 57.154 68.2062C57.0239 67.873 56.8837 67.551 56.7406 67.2466C56.7333 67.2299 56.724 67.2085 56.7176 67.1927C56.7148 67.1881 56.712 67.1816 56.7093 67.176C56.7074 67.1714 56.7037 67.164 56.7019 67.1593L56.6742 67.1064C56.5303 66.79 56.4343 66.6109 56.2654 66.312C55.9572 65.7505 55.6777 65.3144 55.5116 65.0814C55.5033 65.0703 55.4987 65.0629 55.4913 65.0527C55.2883 64.7501 55.0788 64.4615 54.8721 64.1905C54.8518 64.1636 54.8288 64.1302 54.8094 64.1051C54.8011 64.0995 54.7946 64.0921 54.79 64.0865C54.5113 63.7107 54.3757 63.5566 54.0112 63.1427C53.8211 62.9265 53.6652 62.7548 53.5176 62.5989C51.8779 60.7957 49.6606 59.0444 46.7356 57.967C46.4458 57.85 46.1764 57.7563 45.8655 57.6598L45.7981 57.6338C45.7649 57.6245 45.7224 57.6124 45.6874 57.6022C45.644 57.5874 45.5933 57.5698 45.5508 57.5558C45.4816 57.5326 45.3856 57.5029 45.2777 57.4714C44.1086 57.1085 42.6802 56.8282 40.7001 56.8449C40.5866 56.8449 40.4795 56.8459 40.3716 56.8487C40.3476 56.8487 40.3181 56.8487 40.2968 56.8487C40.2036 56.8487 40.0911 56.857 39.9905 56.8598C39.9084 56.8635 39.8216 56.8644 39.745 56.8691C39.2892 56.8914 38.7753 56.9368 38.217 57.0018C38.194 57.0046 38.1709 57.0074 38.1478 57.0101C38.1118 57.0148 38.0768 57.0185 38.0408 57.0231C37.9457 57.0343 37.8507 57.0454 37.7538 57.0575C37.6698 57.0686 37.5868 57.0797 37.501 57.0918C37.4235 57.102 37.3478 57.1141 37.2703 57.1243C37.2214 57.1308 37.1743 57.1345 37.1254 57.1419C37.0719 57.1493 37.0156 57.1614 36.9621 57.1688C36.9344 57.1726 36.9068 57.1763 36.8791 57.1809C36.6807 57.2115 36.474 57.2468 36.2673 57.2821C36.0209 57.3229 35.7737 57.3656 35.5236 57.412C35.495 57.4176 35.4682 57.4222 35.4396 57.4278C35.4184 57.4315 35.3953 57.437 35.3732 57.4408C35.3114 57.4528 35.2486 57.4658 35.1868 57.4779C34.9552 57.5234 34.7254 57.566 34.4883 57.6171C33.6948 57.7823 32.9031 57.966 32.152 58.1665C31.9923 58.2092 31.8346 58.2509 31.6768 58.2936C31.471 58.3484 31.2588 58.4059 31.0447 58.4653C30.8851 58.5089 30.7338 58.5498 30.5972 58.5869L30.4163 58.6407C30.3158 58.6695 30.2096 58.7011 30.1072 58.7308C29.9365 58.7799 29.7584 58.8338 29.5794 58.8867C29.4613 58.9219 29.3497 58.9535 29.2297 58.9897C29.0009 59.0584 28.7637 59.1354 28.5312 59.2078C28.4685 59.2273 28.4113 59.2449 28.3476 59.2653C25.1854 60.2574 21.7289 61.5669 18.4367 63.0443C18.3896 63.0648 18.3453 63.0861 18.2982 63.1065C18.0334 63.2235 17.7335 63.359 17.4032 63.5112C17.3875 63.5186 17.3709 63.526 17.3552 63.5334C16.1723 64.0791 14.6221 64.8346 12.9908 65.7348L12.9825 65.7394C12.9815 65.7403 12.9797 65.7413 12.9788 65.7413C12.976 65.7431 12.9723 65.745 12.9695 65.7459L12.9271 65.77C12.7204 65.8842 12.5137 66.0002 12.3052 66.119C12.1908 66.184 12.0754 66.2489 11.9619 66.3139C11.9518 66.3194 11.9389 66.3269 11.9287 66.3324C11.8964 66.351 11.8567 66.3761 11.8226 66.3955C11.7617 66.4308 11.7017 66.467 11.6408 66.5023C11.5089 66.5793 11.3788 66.6545 11.2477 66.7324C11.1167 66.8104 10.9894 66.8893 10.8611 66.9682C10.7356 67.0452 10.6101 67.1213 10.4883 67.1983C9.49549 67.8201 8.57554 68.4605 7.72848 69.1407C7.54947 69.2827 7.37877 69.4238 7.21083 69.5648C7.19976 69.5741 7.18961 69.5834 7.17854 69.5927C6.83436 69.8841 6.51972 70.1727 6.2309 70.4604C5.94302 70.7379 5.77139 70.9235 5.70126 71.0024C5.65882 71.0507 5.6256 71.0887 5.58592 71.1323C5.51949 71.2038 5.45397 71.2753 5.38938 71.3476C5.32664 71.4182 5.26389 71.4878 5.20207 71.5592L5.16239 71.6019C5.12918 71.6446 5.08581 71.6984 5.04982 71.7439C5.03413 71.7625 5.0166 71.782 5.00184 71.8005C4.96954 71.8377 4.93356 71.8785 4.90311 71.9138L4.86897 71.9592C4.76747 72.0817 4.67243 72.1996 4.58016 72.3212C4.55986 72.3472 4.54048 72.3741 4.5211 72.4001C4.42145 72.5328 4.31718 72.6785 4.19907 72.8483L4.18431 72.8678L4.16309 72.9003C4.12156 72.9569 4.0865 73.007 4.04498 73.0664C3.99146 73.1453 3.93425 73.2372 3.87889 73.3235C3.78108 73.4747 3.68604 73.6288 3.59377 73.7829L3.52364 73.8924L3.45813 74.0102C3.4406 74.0381 3.41937 74.0724 3.40276 74.0993L3.30127 74.2924L3.24775 74.3898C3.22283 74.4343 3.19608 74.477 3.17208 74.5225C3.16839 74.5281 3.1647 74.5336 3.16101 74.5392L3.12226 74.6135C3.05767 74.736 2.99677 74.8622 2.93587 74.9875C2.90265 75.0524 2.86574 75.123 2.83529 75.1851C2.80392 75.2492 2.77901 75.3104 2.74948 75.3745C2.74302 75.3884 2.73656 75.4023 2.7301 75.4162C2.62952 75.6306 2.53448 75.8441 2.44683 76.0538C2.44037 76.0686 2.43483 76.0835 2.42929 76.0983C2.40346 76.1624 2.37947 76.2246 2.35455 76.2877C2.35179 76.2942 2.34902 76.2997 2.34625 76.3062C2.34071 76.3202 2.33518 76.3359 2.32964 76.3498C2.32503 76.3628 2.31949 76.3749 2.31488 76.3879C2.31303 76.3925 2.31119 76.3972 2.30934 76.4018L2.30657 76.4102C2.28904 76.4556 2.26966 76.5021 2.25213 76.5475C2.2466 76.5614 2.24106 76.5744 2.23645 76.5884C2.20969 76.6589 2.1857 76.7266 2.16078 76.7962C2.06759 77.0496 1.97716 77.3141 1.8895 77.5888C1.51119 78.7563 1.27313 79.8978 1.14487 80.9957C1.12088 81.1896 1.1015 81.3883 1.08397 81.5878C1.07382 81.7056 1.05813 81.8254 1.05075 81.9423C1.03783 82.1242 1.03137 82.3117 1.02307 82.4982C1.02307 82.5019 1.02307 82.5056 1.02307 82.5093C1.01569 82.6792 1.01107 82.849 1.0083 83.0226C1.00461 83.1952 1.00369 83.3706 1.00369 83.5525C1.00277 83.6109 1.00277 83.6759 1.00185 83.7288C1.00277 83.6926 1.00369 83.6462 1.00369 83.6082C1.00369 83.6174 1.00369 83.6276 1.00369 83.636L1.00092 83.7019C1.00092 83.7102 1 83.7195 1 83.7279C1 83.7288 1 83.7307 1 83.7316V83.7353C1 83.7399 1 83.7474 1.00092 83.752C1.00092 83.7566 1.00092 83.7641 1.00092 83.7687L1.00554 83.8662C1.00554 83.8689 1.00554 83.8727 1.00554 83.8754C1.012 84.1761 1.02491 84.487 1.04706 84.8072C1.05075 84.8647 1.0526 84.9316 1.05629 84.9854L1.05813 85.0067C1.05813 85.0104 1.05813 85.0142 1.05905 85.0179C1.05998 85.0244 1.0609 85.0299 1.0609 85.0364L1.10334 85.4977L1.1301 85.6861C1.1301 85.6898 1.1301 85.6935 1.1301 85.6972L1.14302 85.7882C1.15502 85.8912 1.16701 85.9905 1.17809 86.0851L1.18916 86.1826L1.19285 86.2039C1.19285 86.2076 1.19377 86.2113 1.19377 86.2151L1.19746 86.2345C1.19838 86.2438 1.20023 86.2531 1.20208 86.2615L1.26943 86.6856L1.23991 86.4777C1.23991 86.4805 1.24083 86.4833 1.24175 86.486L1.26943 86.6856C1.3045 86.8805 1.33864 87.0503 1.3737 87.2146C1.38477 87.2703 1.39492 87.3352 1.406 87.3863C1.40692 87.3928 1.40969 87.4002 1.41061 87.4067C1.41153 87.4122 1.41246 87.4178 1.41338 87.4234C1.45121 87.5941 1.49735 87.7779 1.54902 87.9681C1.56563 88.0294 1.57947 88.0832 1.59515 88.1436C1.61176 88.2076 1.62837 88.2707 1.6459 88.3347C1.65329 88.3626 1.66067 88.3913 1.66805 88.4183L1.69573 88.5268C1.69758 88.5324 1.69942 88.5389 1.70127 88.5445C1.70311 88.55 1.70496 88.5565 1.70588 88.5621C1.71603 88.5909 1.72803 88.628 1.73818 88.6586C1.83783 88.9593 1.94856 89.3073 2.05559 89.595C2.05928 89.6043 2.06113 89.6145 2.06482 89.6238C2.0639 89.621 2.0639 89.6173 2.06205 89.6136C2.0639 89.6192 2.06667 89.6257 2.06851 89.6312C2.06943 89.634 2.06943 89.6368 2.07128 89.6396C2.07128 89.6405 2.07128 89.6405 2.0722 89.6414C2.07405 89.647 2.07589 89.6526 2.07866 89.6581L2.59354 90.9992C2.61568 91.0558 2.64244 91.1226 2.66828 91.1876L2.60092 91.0159L3.14717 92.343L3.36309 92.7848C3.42952 92.9397 3.49596 93.0929 3.55594 93.2321L3.72479 93.5634C3.88443 93.8984 4.04498 94.2204 4.20461 94.5054C4.51557 95.1142 4.99261 95.8631 5.37001 96.471L5.4143 96.5462C5.42075 96.5554 5.42814 96.5656 5.4346 96.5749C5.44382 96.5898 5.4549 96.6074 5.46412 96.6222C5.52779 96.7262 5.72341 97.0195 5.99838 97.4111C6.23367 97.7498 6.48096 98.0867 6.73932 98.4217C6.74855 98.4338 6.75778 98.4487 6.767 98.4607C7.1933 99.0445 7.80507 99.7934 8.31072 100.309C8.31625 100.315 8.32179 100.321 8.32733 100.326C8.34578 100.347 8.36331 100.367 8.38177 100.387C8.70749 100.737 9.01014 101.046 9.3008 101.338C9.36446 101.403 9.42813 101.467 9.4918 101.53C9.64036 101.679 9.78522 101.823 9.92086 101.95C9.92732 101.957 9.93655 101.964 9.94301 101.971C10.7209 102.715 11.5107 103.385 12.3043 103.986C13.1153 104.616 14.5908 105.658 16.6309 106.703L16.6493 106.713L16.7702 106.772C16.9898 106.884 17.2122 106.995 17.4447 107.106C17.4724 107.119 17.5047 107.137 17.5315 107.15C17.5675 107.168 17.6108 107.186 17.6486 107.204L17.7151 107.236C18.3481 107.546 19.0392 107.829 19.7045 108.075L19.7275 108.085C19.7386 108.088 19.7525 108.093 19.7645 108.098C19.8355 108.124 19.9065 108.15 19.9767 108.175C19.9896 108.179 20.0034 108.186 20.0164 108.19L19.9711 108.175C19.9914 108.182 20.009 108.188 20.0293 108.195C20.0394 108.199 20.0505 108.203 20.0606 108.208L20.1363 108.233C20.2166 108.262 20.2922 108.288 20.3707 108.315C20.4233 108.333 20.4759 108.351 20.5294 108.37C20.6936 108.425 20.8496 108.477 21.0018 108.527C21.1052 108.562 21.2094 108.595 21.3155 108.628C21.3497 108.64 21.3866 108.652 21.4207 108.662C21.5379 108.699 21.656 108.734 21.7751 108.77C21.8267 108.786 21.8775 108.802 21.9273 108.818L22.0334 108.852L22.1248 108.878C22.182 108.894 22.2503 108.91 22.3102 108.925C22.6452 109.021 22.8509 109.075 22.8583 109.077C22.9137 109.091 22.9617 109.101 23.0161 109.114C23.1859 109.157 23.3621 109.196 23.5356 109.236C23.6436 109.261 23.7571 109.288 23.8613 109.312C23.9453 109.33 24.0256 109.351 24.1114 109.369C24.1723 109.382 24.2341 109.389 24.295 109.402C24.3753 109.419 24.4602 109.438 24.5386 109.454C24.5183 109.45 24.498 109.448 24.4777 109.444L24.5561 109.457C24.6346 109.473 24.7112 109.487 24.7868 109.502C24.8071 109.506 24.832 109.512 24.8523 109.517L24.9363 109.529C25.2436 109.585 25.5351 109.634 25.8138 109.674C25.8867 109.686 25.9596 109.697 26.0325 109.707C26.0915 109.715 26.1524 109.724 26.2106 109.731C26.2816 109.74 26.3518 109.75 26.4219 109.758L26.4763 109.767L26.8509 109.812C27.2099 109.851 27.4756 109.879 27.7229 109.9C27.7478 109.902 27.7727 109.904 27.7977 109.906C27.9767 109.921 28.1529 109.933 28.3439 109.943C28.4436 109.949 28.5423 109.952 28.6419 109.957C28.6752 109.959 28.7075 109.961 28.7407 109.964C28.7481 109.964 29.0258 109.982 29.4742 109.992C29.5508 109.994 29.6283 109.995 29.7049 109.996C29.9356 110 30.1977 110.001 30.4865 109.998C30.5206 109.998 30.5547 109.998 30.5889 109.997C30.8251 109.996 31.0346 109.991 31.2717 109.981C31.3114 109.979 31.3538 109.977 31.3944 109.975C31.4101 109.974 31.4258 109.974 31.4406 109.973C31.985 109.95 32.5727 109.909 33.1688 109.841C33.2325 109.835 33.2961 109.827 33.3607 109.819C33.37 109.818 33.3792 109.817 33.3875 109.816C33.4355 109.811 33.4908 109.802 33.5397 109.795L33.847 109.759C33.9688 109.741 34.0971 109.722 34.229 109.702C34.3065 109.691 34.3887 109.682 34.4652 109.67C34.5501 109.657 34.6332 109.643 34.7181 109.629C34.7337 109.626 34.7485 109.624 34.7642 109.621C34.9478 109.592 35.1314 109.562 35.3151 109.529C35.4193 109.51 35.5218 109.49 35.6251 109.469C35.6306 109.468 35.6362 109.467 35.6408 109.467C35.6565 109.464 35.6712 109.461 35.6869 109.457C35.7238 109.45 35.7598 109.443 35.7967 109.437C35.8429 109.428 35.8862 109.42 35.9333 109.411C35.961 109.405 35.9896 109.399 36.0173 109.393C36.2378 109.349 36.4694 109.299 36.7093 109.245C36.8237 109.219 36.9372 109.193 37.0516 109.165C37.3404 109.095 37.6394 109.021 37.9559 108.935C37.9983 108.924 38.0389 108.913 38.0805 108.902L38.7171 108.717C38.8399 108.68 38.9939 108.63 39.125 108.589C39.1157 108.591 39.1093 108.594 39.1001 108.597L39.1388 108.584C39.1434 108.583 39.149 108.581 39.1536 108.579L39.1831 108.57C39.2016 108.564 39.2256 108.556 39.2459 108.55C39.3298 108.522 39.4119 108.496 39.5033 108.464L39.5513 108.448L39.6186 108.425C41.8507 107.676 43.7644 106.725 45.3746 105.739C45.4355 105.702 45.5102 105.659 45.5591 105.629C45.5646 105.625 45.572 105.621 45.5776 105.618C45.5831 105.614 45.5932 105.609 45.5988 105.605C45.8738 105.439 46.146 105.262 46.4071 105.088C46.552 104.992 46.6904 104.897 46.8297 104.8C46.9257 104.733 47.0179 104.669 47.1074 104.606L47.1637 104.568C47.1831 104.554 47.208 104.536 47.2274 104.521C47.2338 104.516 47.2403 104.512 47.2468 104.507C47.2643 104.495 47.2855 104.48 47.3021 104.469L47.3132 104.461C47.3843 104.41 47.4581 104.359 47.5282 104.307C48.8864 103.324 50.0814 102.284 51.0761 101.242C51.1932 101.12 51.3086 100.998 51.4258 100.876C51.6601 100.629 51.8613 100.414 52.0357 100.222C52.0726 100.182 52.1067 100.143 52.1427 100.103C52.2128 100.025 52.2848 99.9447 52.3513 99.8686C52.5949 99.5929 52.8292 99.3201 53.0221 99.0677C53.0618 99.0157 53.0968 98.9693 53.1356 98.9183C53.4659 98.5034 53.8221 98.0366 54.2253 97.4761C54.2622 97.425 54.301 97.3619 54.3379 97.3081C54.8158 96.6417 55.2421 95.9967 55.6186 95.3026C55.674 95.2005 55.7164 95.1216 55.7681 95.0269C55.8354 94.91 55.9083 94.781 55.9859 94.6399C56.0929 94.4469 56.199 94.2539 56.3014 94.0599C56.3143 94.0358 56.3245 94.0172 56.3383 93.9921L56.3134 94.0358C56.342 93.9819 56.366 93.9272 56.3937 93.8743C56.4131 93.8399 56.4352 93.8 56.4537 93.7657C56.5146 93.6543 56.6179 93.4502 56.7499 93.1717C56.8246 93.0214 56.8957 92.8748 56.9621 92.7309C57.0645 92.51 57.1595 92.2864 57.2564 92.0637C57.309 91.9365 57.3635 91.8066 57.4207 91.6627C57.6698 91.0623 57.8977 90.4563 58.1044 89.8419C58.1902 89.595 58.2677 89.3491 58.3462 89.1041C58.3951 88.9445 58.4532 88.7876 58.4993 88.628C59.2957 85.9626 59.6334 83.3919 59.673 80.9892C59.6749 80.9289 59.6767 80.8667 59.6786 80.8073C59.6804 80.7163 59.6804 80.631 59.6823 80.5437C59.6832 80.4593 59.685 80.3711 59.685 80.2894C59.685 80.0008 59.6777 79.7233 59.6666 79.4412Z" fill="#D21830" stroke="black" stroke-width="2" stroke-miterlimit="10" stroke-linecap="round"/>
<path d="M49.0386 67.1056C52.6566 72.7909 42.1607 79.4608 34.586 77.9583C29.3717 76.9235 27.3934 72.6015 32.4389 69.4276C32.568 69.3459 45.6818 61.8305 49.0386 67.1056Z" fill="#FA9FB1" stroke="black" stroke-width="2" stroke-miterlimit="10" stroke-linecap="round"/>
<path d="M15.7559 69.3747C15.7559 69.3747 25.8772 68.0717 31.9182 63.5771" stroke="black" stroke-width="2" stroke-miterlimit="10" stroke-linecap="round"/>
<path d="M23.5974 67.4042C21.7143 66.4393 18.6724 63.439 12.2988 66.1444L22.7283 61.5129C25.3839 61.1269 24.1479 64.0754 26.3496 66.3912L23.5974 67.4042Z" fill="black" stroke="black" stroke-width="2"/>
<path d="M100.393 68.1049C102.974 72.554 95.486 77.7733 90.0825 76.5975C86.3621 75.7882 84.9513 72.4055 88.5508 69.922C88.6421 69.858 97.9976 63.9769 100.393 68.1049Z" fill="#FA9FB1" stroke="black" stroke-width="2" stroke-miterlimit="10" stroke-linecap="round"/>
<path d="M83.6165 65.9381C82.5747 66.8513 81.1482 67.6169 79.6137 68.157L76.3953 68.9162L76.0339 67.5482L74.6034 66.2937C72.9831 64.8726 70.9925 63.941 68.8633 63.6073L64.7354 62.9603C68.3567 61.0787 74.3689 56.4609 78.0619 62.8155L81.1038 65.9381L84.2718 64.5515C84.5075 64.4483 84.7246 64.676 84.578 64.8874C84.3388 65.2323 84.0188 65.5852 83.6165 65.9381Z" fill="black"/>
<path d="M71.013 67.5482C71.3849 68.2155 72.2513 68.712 73.5773 68.9153C74.4363 69.047 75.4006 69.0368 76.3953 68.9162M76.3953 68.9162L79.6137 68.157C81.1482 67.6169 82.5747 66.8513 83.6165 65.9381C84.0188 65.5852 84.3388 65.2323 84.578 64.8874C84.7246 64.676 84.5075 64.4483 84.2718 64.5515L81.1038 65.9381L78.0619 62.8155C74.3689 56.4609 68.3567 61.0787 64.7354 62.9603L68.8633 63.6073C70.9925 63.941 72.9831 64.8726 74.6034 66.2937L76.0339 67.5482L76.3953 68.9162Z" stroke="black" stroke-width="2" stroke-miterlimit="10" stroke-linecap="round"/>
<path d="M14.3363 1.74611L10.2519 5.85657C9.34985 6.7644 9.37361 8.23732 10.3045 9.11558L10.8596 9.63938C26.7119 22.7021 25.7724 51.2824 23.4051 65.768C23.2486 66.7255 24.2738 67.453 25.1194 66.9774L27.0363 65.8994C27.5051 65.6357 27.868 65.2153 28.044 64.7071C33.9205 47.7376 27.1092 26.5014 22.8012 17.6596C22.7273 17.508 22.6915 17.3482 22.6915 17.1795C22.6915 16.3753 23.5278 15.8441 24.2557 16.186L26.9171 17.4359C57.695 27.9413 72.2517 54.0647 76.1574 67.1359C76.4411 68.0854 77.4411 68.6321 78.3834 68.3252L79.9004 67.8313C80.7586 67.5519 81.2511 66.6446 81.0039 65.7766C71.8168 33.5198 42.006 16.8587 27.5867 12.7987C27.1428 12.6737 26.7561 12.429 26.4555 12.0792L17.676 1.86661C16.8108 0.860278 15.2717 0.804742 14.3363 1.74611Z" fill="#77685C" stroke="black" stroke-width="2"/>
</svg>
